<svg width="48" height="48" viewBox="0 0 48 48" fill="none" xmlns="http://www.w3.org/2000/svg"><path fill-rule="evenodd" clip-rule="evenodd" d="M24.9998 7H37.9998C39.6567 7 40.9998 8.34315 40.9998 10V36C40.9998 37.6569 39.6567 39 37.9998 39H34.5025L35.5402 38.4009C37.9317 37.0202 38.751 33.9622 37.3703 31.5708L24.5297 9.33012C24.148 8.66897 23.638 8.12798 23.0495 7.72042C23.5739 7.27129 24.2552 7 24.9998 7ZM21.0713 6.9066C21.9869 5.74543 23.4063 5 24.9998 5H37.9998C40.7612 5 42.9998 7.23858 42.9998 10V36C42.9998 38.7614 40.7612 41 37.9998 41H31.0384L24.2057 44.9449C21.8143 46.3256 18.7563 45.5062 17.3756 43.1147L4.53497 20.8741C3.15425 18.4826 3.97363 15.4247 6.36509 14.0439L17.6995 7.5C18.7605 6.88745 19.9527 6.70793 21.0713 6.9066ZM7.36509 15.776L18.6995 9.23205C20.1344 8.40362 21.9692 8.89525 22.7976 10.3301L35.6383 32.5708C36.4667 34.0057 35.9751 35.8404 34.5402 36.6689L23.2057 43.2128C21.7709 44.0412 19.9361 43.5496 19.1077 42.1147L6.26702 19.8741C5.43859 18.4392 5.93021 16.6044 7.36509 15.776Z" fill="#343641"></path></svg>